<svg width="20" height="20" viewBox="0 0 20 20" fill="none" xmlns="http://www.w3.org/2000/svg">
<path fill-rule="evenodd" clip-rule="evenodd" d="M7.9075 4.21179C7.8134 3.77264 7.18677 3.77263 7.09266 4.21179L6.09723 8.85716C5.85023 10.0098 4.83157 10.8333 3.65272 10.8333H2.50008C2.03984 10.8333 1.66675 10.4602 1.66675 10C1.66675 9.53976 2.03984 9.16666 2.50008 9.16666H3.65272C4.04567 9.16666 4.38522 8.89217 4.46756 8.50794L5.46299 3.86258C5.93351 1.66683 9.06665 1.66681 9.53717 3.86257L12.0927 15.7882C12.1868 16.2274 12.8134 16.2273 12.9075 15.7882L13.9029 11.1428C14.1499 9.99017 15.1686 9.16666 16.3474 9.16666H17.5001C17.9603 9.16666 18.3334 9.53976 18.3334 10C18.3334 10.4602 17.9603 10.8333 17.5001 10.8333H16.3474C15.9545 10.8333 15.6149 11.1078 15.5326 11.4921L14.5372 16.1374C14.0666 18.3332 10.9335 18.3332 10.463 16.1374L7.9075 4.21179Z" fill="#FF6A55"/>
</svg>
