<svg width="20" height="20" viewBox="0 0 20 20" fill="none" xmlns="http://www.w3.org/2000/svg">
<path d="M16.6667 10C16.6667 6.31812 13.6819 3.33335 10 3.33335C7.9025 3.33335 6.05936 4.30294 4.84817 5.82769L6.2476 5.82359C6.70783 5.82224 7.08202 6.19424 7.08337 6.65448C7.08472 7.11472 6.71272 7.4889 6.25248 7.49025L3.38343 7.49866C3.35142 7.50061 3.31921 7.50072 3.28694 7.49894L2.91915 7.50002C2.69771 7.50067 2.48512 7.41316 2.32832 7.25681C2.17151 7.10046 2.08337 6.88812 2.08337 6.66669L2.08338 3.33335C2.08338 2.87312 2.45647 2.50002 2.91671 2.50002C3.37695 2.50002 3.75004 2.87312 3.75004 3.33335L3.75004 4.54125C5.2605 2.78367 7.48089 1.66669 10 1.66669C14.6024 1.66669 18.3334 5.39765 18.3334 10C18.3334 14.6024 14.6024 18.3334 10 18.3334C6.72008 18.3334 3.94659 16.4398 2.58711 13.7042C2.38229 13.2921 2.55036 12.7919 2.96251 12.5871C3.37466 12.3823 3.87481 12.5503 4.07964 12.9625C5.17466 15.166 7.39046 16.6667 10 16.6667C13.6819 16.6667 16.6667 13.6819 16.6667 10Z" fill="#6F767E"/>
<path fill-rule="evenodd" clip-rule="evenodd" d="M9.99996 5.83331C10.4602 5.83331 10.8333 6.20641 10.8333 6.66665V9.6548L12.2559 11.0774C12.5813 11.4028 12.5813 11.9305 12.2559 12.2559C11.9304 12.5813 11.4028 12.5813 11.0774 12.2559L9.65478 10.8333C9.34222 10.5208 9.16663 10.0968 9.16663 9.6548V6.66665C9.16663 6.20641 9.53972 5.83331 9.99996 5.83331Z" fill="#6F767E"/>
</svg>
