<svg viewBox="0 0 20 20" fill="none"
  xmlns="http://www.w3.org/2000/svg">
  <path fill-rule="evenodd" clip-rule="evenodd" d="M10.0001 11.6667C10.9206 11.6667 11.6667 10.9205 11.6667 10C11.6667 9.07955 10.9206 8.33335 10.0001 8.33335C9.07961 8.33335 8.33341 9.07955 8.33341 10C8.33341 10.9205 9.07961 11.6667 10.0001 11.6667ZM13.3334 10C13.3334 11.841 11.841 13.3334 10.0001 13.3334C8.15913 13.3334 6.66675 11.841 6.66675 10C6.66675 8.15907 8.15913 6.66669 10.0001 6.66669C11.841 6.66669 13.3334 8.15907 13.3334 10Z" fill="#6F767E"/>
  <path fill-rule="evenodd" clip-rule="evenodd" d="M9.4825 2.49998L9.15954 3.46886C8.84707 4.40628 8.16586 5.05852 7.47109 5.44537C7.42168 5.47289 7.37275 5.50119 7.32432 5.53026C6.641 5.94047 5.73422 6.20507 4.765 6.00673L3.76352 5.8018L4.09765 4.16897L5.09913 4.3739C5.57019 4.4703 6.05424 4.34879 6.46649 4.10131C6.53042 4.06293 6.59503 4.02556 6.66029 3.98922C7.07989 3.75558 7.42653 3.39743 7.5784 2.94182L7.90136 1.97293C8.12822 1.29236 8.76512 0.833313 9.4825 0.833313H10.5175C11.2349 0.833313 11.8718 1.29236 12.0986 1.97293L12.4216 2.94182C12.5734 3.39743 12.9201 3.75558 13.3397 3.98922C13.4049 4.02556 13.4695 4.06293 13.5335 4.1013C13.9457 4.34878 14.4298 4.47029 14.9008 4.3739L15.9023 4.16897C16.6051 4.02515 17.3211 4.34719 17.6798 4.96846L18.1973 5.86477C18.556 6.48605 18.4769 7.26714 18.0009 7.80389L17.3218 8.56977C17.0035 8.92868 16.8659 9.40732 16.8735 9.88696C16.8747 9.96227 16.8747 10.0376 16.8735 10.113C16.8659 10.5926 17.0035 11.0712 17.3218 11.4301L18.0009 12.196C18.4769 12.7328 18.556 13.5139 18.1973 14.1351L17.6798 15.0314C17.3211 15.6527 16.6051 15.9748 15.9023 15.8309L14.9009 15.626C14.4298 15.5296 13.9458 15.6511 13.5335 15.8986C13.4696 15.937 13.405 15.9744 13.3397 16.0107C12.9201 16.2444 12.5734 16.6025 12.4216 17.0581L12.0986 18.027C11.8718 18.7076 11.2349 19.1666 10.5175 19.1666H9.4825C8.76512 19.1666 8.12822 18.7076 7.90136 18.027L7.5784 17.0581C7.42653 16.6025 7.07989 16.2444 6.66029 16.0107C6.59501 15.9744 6.53038 15.937 6.46643 15.8986C6.05418 15.6511 5.57013 15.5296 5.09906 15.626L4.09765 15.8309C3.39483 15.9748 2.67883 15.6527 2.32014 15.0314L1.80266 14.1351C1.44396 13.5139 1.52307 12.7328 1.99903 12.196L3.24603 13.3018L3.76352 14.1981L4.76493 13.9932C5.73417 13.7948 6.64096 14.0595 7.32428 14.4697C7.37272 14.4988 7.42167 14.5271 7.47109 14.5546C8.16586 14.9414 8.84707 15.5937 9.15954 16.5311L9.4825 17.5L10.5175 17.5L10.8404 16.5311C11.1529 15.5937 11.8341 14.9414 12.5289 14.5546C12.5783 14.5271 12.6272 14.4988 12.6757 14.4697C13.359 14.0595 14.2658 13.7948 15.235 13.9932L16.2364 14.1981L16.7539 13.3018L16.0748 12.5359C15.4208 11.7984 15.1945 10.8838 15.2071 10.0866C15.208 10.0288 15.208 9.97108 15.2071 9.91337C15.1945 9.11611 15.4208 8.20148 16.0748 7.46399L16.7539 6.69811L16.2364 5.8018L15.235 6.00673C14.2657 6.20507 13.359 5.94047 12.6756 5.53026C12.6272 5.50118 12.5783 5.47288 12.5289 5.44537C11.8341 5.05852 11.1529 4.40628 10.8404 3.46886L10.5175 2.49998L9.4825 2.49998ZM1.99903 12.196L3.24603 13.3018L3.92522 12.5359C4.57918 11.7984 4.80551 10.8838 4.79288 10.0865C4.79197 10.0288 4.79197 9.97109 4.79288 9.9134C4.80552 9.11615 4.57919 8.20152 3.92522 7.46404L3.24603 6.69811L3.76352 5.8018L4.09765 4.16897C3.39483 4.02515 2.67883 4.34719 2.32014 4.96846L1.80266 5.86477C1.44396 6.48605 1.52306 7.26714 1.99903 7.80389L2.67822 8.56982C2.99648 8.92873 3.13402 9.40736 3.12643 9.887C3.12523 9.96228 3.12523 10.0376 3.12642 10.1129C3.13402 10.5925 2.99647 11.0712 2.67822 11.4301L1.99903 12.196Z" fill="#6F767E"/>
</svg>
